External Loads File
version=1
nRows=39
nColumns=13
Range=5.000000e-03-10 seconds
endheader
time 	forceRightX 	forceRightY 	forceRightZ 	pointRightX 	pointRightY 	pointRightZ 	forceLeftX 	forceLeftY 	forceLeftZ 	pointLeftX 	pointLeftY 	pointLeftZ 		
5.005000 -108.773234 407.978009 -0.000000 0.352830 0.446422 -0.107626 127.661772 5.389549 -0.000000 0.126597 0.199464 -0.343666
5.010000 -118.116796 458.263137 -0.000000 0.357949 0.437613 -0.107798 127.075560 8.261970 -0.000000 0.120306 0.207007 -0.343764
5.015000 -128.081124 508.063339 -0.000000 0.362652 0.427651 -0.107885 128.264631 11.437572 -0.000000 0.114554 0.215053 -0.343873
5.020000 -139.735132 555.323924 -0.000000 0.367205 0.418048 -0.108042 130.430762 14.230819 -0.000000 0.109351 0.223457 -0.344062
5.025000 -152.442094 598.863877 -0.000000 0.371484 0.408230 -0.108211 132.780177 15.841568 -0.000000 0.104847 0.232189 -0.344270
5.030000 -165.542431 638.110246 -0.000000 0.375582 0.398009 -0.108522 134.642815 15.857077 -0.000000 0.100956 0.241136 -0.344416
5.035000 -179.644568 672.741241 -0.000000 0.379206 0.387730 -0.108697 135.494512 14.427375 -0.000000 0.097734 0.250296 -0.344731
5.040000 -193.992842 703.202388 -0.000000 0.382559 0.377317 -0.108909 135.024305 11.603758 -0.000000 0.095194 0.259685 -0.344940
5.045000 -207.611020 730.254877 -0.000000 0.385428 0.366615 -0.108772 133.073567 7.561657 -0.000000 0.093267 0.269361 -0.345117
5.050000 -220.169557 754.605893 -0.000000 0.387897 0.355828 -0.108755 129.610871 2.764609 -0.000000 0.091918 0.279283 -0.345377
5.055000 -231.168624 777.036811 -0.000000 0.389656 0.344845 -0.108414 124.765430 -2.222443 -0.000000 0.091209 0.289296 -0.345567
5.060000 -239.451718 798.471889 -0.000000 0.391142 0.333851 -0.108391 118.827769 -6.898694 -0.000000 0.091125 0.299615 -0.345651
5.065000 -245.124467 819.346405 -0.000000 0.392127 0.322853 -0.108294 112.218300 -10.663695 -0.000000 0.091607 0.309958 -0.345749
5.070000 -247.975804 840.032555 -0.000000 0.392533 0.311952 -0.108211 105.387452 -13.205466 -0.000000 0.092706 0.320250 -0.345919
5.075000 -246.133440 861.162559 -0.000000 0.392551 0.300987 -0.107151 98.623773 -14.686634 -0.000000 0.094270 0.330780 -0.345845
5.080000 -239.538057 882.489274 -0.000000 0.391464 0.290164 -0.108025 91.970477 -15.236626 -0.000000 0.096454 0.341444 -0.345797
5.085000 -228.368862 903.299193 -0.000000 0.390093 0.279485 -0.107788 85.229479 -15.054923 -0.000000 0.099168 0.352117 -0.345726
5.090000 -213.346544 922.354708 -0.000000 0.388205 0.268993 -0.107601 78.146099 -14.274444 -0.000000 0.102396 0.362486 -0.345597
5.095000 -193.584557 938.495618 -0.000000 0.385834 0.258883 -0.107247 70.545434 -13.120831 -0.000000 0.106125 0.373053 -0.345468
5.100000 -169.832136 950.012024 -0.000000 0.383020 0.248970 -0.107487 62.424327 -11.660230 -0.000000 0.110408 0.383474 -0.345256
5.105000 -143.071138 955.236288 -0.000000 0.379680 0.239369 -0.107304 53.876557 -9.960358 -0.000000 0.115187 0.393681 -0.345130
5.110000 -114.404459 952.747693 -0.000000 0.375948 0.230171 -0.107189 45.050544 -8.051338 -0.000000 0.120516 0.403657 -0.345460
5.115000 -84.305632 941.567273 -0.000000 0.371799 0.221155 -0.106875 36.125752 -5.908898 -0.000000 0.126269 0.413393 -0.345485
5.120000 -54.700655 920.962093 -0.000000 0.367268 0.212640 -0.106751 27.305434 -3.332646 -0.000000 0.132330 0.422877 -0.345359
5.125000 -24.703029 890.754519 -0.000000 0.362260 0.204430 -0.106548 18.767644 -0.093724 -0.000000 0.139237 0.432073 -0.346435
5.130000 2.628527 850.887212 -0.000000 0.356906 0.196513 -0.106259 10.670948 4.196875 -0.000000 0.146243 0.440631 -0.345984
5.135000 26.410521 801.851898 -0.000000 0.351182 0.189141 -0.105951 3.113366 9.764467 -0.000000 0.153061 0.448835 -0.345423
5.140000 48.442209 744.410983 -0.000000 0.345080 0.182287 -0.105633 -3.823864 16.663180 -0.000000 0.160791 0.456665 -0.345865
5.145000 65.681008 680.035365 -0.000000 0.338701 0.175813 -0.105354 -10.212463 24.759397 -0.000000 0.168132 0.463860 -0.345494
5.150000 80.492187 610.440285 -0.000000 0.331901 0.169885 -0.105004 -16.078245 33.792732 -0.000000 0.176358 0.470290 -0.345358
5.155000 91.356307 538.205085 -0.000000 0.324608 0.164685 -0.104695 -21.629477 43.380685 -0.000000 0.184136 0.476276 -0.345600
5.160000 100.160557 465.883281 -0.000000 0.316596 0.160307 -0.104337 -26.958116 53.197938 -0.000000 0.192005 0.481591 -0.345922
5.165000 108.928200 395.937221 -0.000000 0.307795 0.156544 -0.103980 -32.075364 63.024506 -0.000000 0.200581 0.486210 -0.346128
5.170000 118.270234 330.769957 -0.000000 0.298097 0.153552 -0.103783 -37.146926 72.696574 -0.000000 0.209311 0.490305 -0.346005
5.175000 129.225768 271.946084 -0.000000 0.287634 0.151226 -0.103572 -42.299156 82.270107 -0.000000 0.218112 0.493889 -0.346263
5.180000 142.543304 219.989698 -0.000000 0.276466 0.149848 -0.103399 -47.593868 92.040438 -0.000000 0.227008 0.496803 -0.346585
5.185000 158.252973 174.461226 -0.000000 0.264784 0.149204 -0.103353 -53.002013 102.486710 -0.000000 0.236058 0.498748 -0.346881
5.190000 175.198447 134.656644 -0.000000 0.252902 0.149516 -0.103422 -58.626122 114.057165 -0.000000 0.244744 0.500119 -0.346981
5.195000 191.728421 99.775870 -0.000000 0.241385 0.150125 -0.103295 -64.529780 127.197379 -0.000000 0.253048 0.500760 -0.347462
